<svg width="1699" height="1024" viewBox="0 0 1699 1024" fill="none" xmlns="http://www.w3.org/2000/svg">
<path opacity="0.4" d="M989.312 19.1538V35.9744H1008.08M1028.56 19.1538V35.9744H1008.08M1008.08 16V35.9744M1008.08 35.9744V57" stroke="url(#paint0_linear_16_593)" stroke-width="4"/>
<path opacity="0.4" d="M1326.96 168H1281.18L1304.51 133L1326.96 168Z" stroke="url(#paint1_linear_16_593)" stroke-width="4"/>
<path opacity="0.4" d="M1281.18 61V101H1326.96M1281.18 61H1326.96V101M1281.18 61L1326.96 101" stroke="url(#paint2_linear_16_593)" stroke-width="4"/>
<path opacity="0.4" d="M1318.79 198V217M1318.79 236V217M1318.79 217L1287.72 236M1318.79 217L1287.72 198" stroke="url(#paint3_linear_16_593)" stroke-width="4"/>
<path opacity="0.4" d="M1282.81 0.230769V17.4615H1302.36M1323.69 0.230769V17.4615H1302.36M1302.36 -3V17.4615M1302.36 17.4615V39" stroke="url(#paint4_linear_16_593)" stroke-width="4"/>
<path opacity="0.4" d="M1284.45 263.154V279.974H1303.22M1323.69 263.154V279.974H1303.22M1303.22 260V279.974M1303.22 279.974V301" stroke="url(#paint5_linear_16_593)" stroke-width="4"/>
<path opacity="0.4" d="M1458.62 434L1480.26 400L1502.77 434" stroke="url(#paint6_linear_16_593)" stroke-width="4"/>
<path opacity="0.4" d="M1461.89 506H1499.5V493.542M1499.5 493.542V467L1461.89 482.167L1499.5 493.542Z" stroke="url(#paint7_linear_16_593)" stroke-width="4"/>
<path opacity="0.4" d="M1504.41 905H1458.62L1481.96 870L1504.41 905Z" stroke="url(#paint8_linear_16_593)" stroke-width="4"/>
<path opacity="0.4" d="M1458.62 798V838H1504.41M1458.62 798H1504.41V838M1458.62 798L1504.41 838" stroke="url(#paint9_linear_16_593)" stroke-width="4"/>
<path opacity="0.4" d="M1496.23 935V954M1496.23 973V954M1496.23 954L1465.16 973M1496.23 954L1465.16 935" stroke="url(#paint10_linear_16_593)" stroke-width="4"/>
<path opacity="0.4" d="M1458.62 571L1480.26 536L1502.77 571" stroke="url(#paint11_linear_16_593)" stroke-width="4"/>
<path opacity="0.4" d="M1460.26 335H1502.77M1473.71 354.268H1502.77M1502.77 373H1460.26" stroke="url(#paint12_linear_16_593)" stroke-width="4"/>
<path opacity="0.4" d="M1460.26 737.231V754.462H1479.81M1501.14 737.231V754.462H1479.81M1479.81 734V754.462M1479.81 754.462V776" stroke="url(#paint13_linear_16_593)" stroke-width="4"/>
<path opacity="0.4" d="M1461.89 308H1499.5V295.861M1499.5 295.861V270L1461.89 284.778L1499.5 295.861Z" stroke="url(#paint14_linear_16_593)" stroke-width="4"/>
<path opacity="0.4" d="M1504.41 708H1458.62L1481.96 673L1504.41 708Z" stroke="url(#paint15_linear_16_593)" stroke-width="4"/>
<path opacity="0.4" d="M1461.89 1000.15V1016.97H1480.66M1501.14 1000.15V1016.97H1480.66M1480.66 997V1016.97M1480.66 1016.97V1038" stroke="url(#paint16_linear_16_593)" stroke-width="4"/>
<path d="M1480.65 633.24C1478.16 633.24 1475.88 632.76 1473.84 631.8C1471.82 630.84 1470.08 629.544 1468.6 627.912C1467.16 626.248 1466.04 624.392 1465.24 622.344C1464.44 620.264 1464.04 618.136 1464.04 615.96C1464.04 613.688 1464.46 611.528 1465.29 609.48C1466.16 607.4 1467.32 605.56 1468.8 603.96C1470.3 602.328 1472.06 601.048 1474.08 600.12C1476.12 599.16 1478.36 598.68 1480.8 598.68C1483.26 598.68 1485.5 599.176 1487.52 600.168C1489.56 601.16 1491.31 602.488 1492.75 604.152C1494.19 605.816 1495.31 607.672 1496.11 609.72C1496.91 611.768 1497.31 613.88 1497.31 616.056C1497.31 618.296 1496.89 620.456 1496.06 622.536C1495.23 624.584 1494.06 626.424 1492.56 628.056C1491.08 629.656 1489.32 630.92 1487.28 631.848C1485.26 632.776 1483.05 633.24 1480.65 633.24ZM1470.76 615.96C1470.76 617.432 1470.99 618.856 1471.44 620.232C1471.88 621.608 1472.52 622.84 1473.36 623.928C1474.22 624.984 1475.26 625.832 1476.48 626.472C1477.72 627.08 1479.13 627.384 1480.7 627.384C1482.3 627.384 1483.72 627.064 1484.97 626.424C1486.22 625.752 1487.26 624.872 1488.09 623.784C1488.92 622.664 1489.55 621.432 1489.96 620.088C1490.41 618.712 1490.64 617.336 1490.64 615.96C1490.64 614.488 1490.4 613.08 1489.92 611.736C1489.47 610.36 1488.81 609.144 1487.95 608.088C1487.12 607 1486.08 606.152 1484.83 605.544C1483.61 604.904 1482.24 604.584 1480.7 604.584C1479.07 604.584 1477.63 604.92 1476.38 605.592C1475.16 606.232 1474.14 607.096 1473.31 608.184C1472.48 609.272 1471.84 610.488 1471.39 611.832C1470.97 613.176 1470.76 614.552 1470.76 615.96Z" fill="url(#paint17_linear_16_593)"/>
<path opacity="0.4" d="M1625.41 -7.84615V8.97436H1644.18M1664.66 -7.84615V8.97436H1644.18M1644.18 -11V8.97436M1644.18 8.97436V30" stroke="url(#paint18_linear_16_593)" stroke-width="4"/>
<path opacity="0.4" d="M570.694 717.297L592.337 679.711L614.845 717.297" stroke="url(#paint19_linear_16_593)" stroke-width="4"/>
<path opacity="0.4" d="M573.964 796.891H611.575V783.118M611.575 783.118V753.777L573.964 770.544L611.575 783.118Z" stroke="url(#paint20_linear_16_593)" stroke-width="4"/>
<path opacity="0.4" d="M570.694 868.746L592.337 830.055L614.845 868.746" stroke="url(#paint21_linear_16_593)" stroke-width="4"/>
<path opacity="0.4" d="M572.329 607.855H614.845M585.778 629.155H614.845M614.845 649.863H572.329" stroke="url(#paint22_linear_16_593)" stroke-width="4"/>
<path opacity="0.4" d="M573.964 578.008H611.575V564.589M611.575 564.589V536L573.964 552.336L611.575 564.589Z" stroke="url(#paint23_linear_16_593)" stroke-width="4"/>
<path opacity="0.4" d="M616.48 1020.2H570.694L594.027 981.504L616.48 1020.2Z" stroke="url(#paint24_linear_16_593)" stroke-width="4"/>
<path d="M592.725 933.201C590.229 933.201 587.957 932.721 585.909 931.761C583.893 930.801 582.149 929.505 580.677 927.873C579.237 926.209 578.117 924.353 577.317 922.305C576.517 920.225 576.117 918.097 576.117 915.921C576.117 913.649 576.533 911.489 577.365 909.441C578.229 907.361 579.397 905.521 580.869 903.921C582.373 902.289 584.133 901.009 586.149 900.081C588.197 899.121 590.437 898.641 592.869 898.641C595.333 898.641 597.573 899.137 599.589 900.129C601.637 901.121 603.381 902.449 604.821 904.113C606.261 905.777 607.381 907.633 608.181 909.681C608.981 911.729 609.381 913.841 609.381 916.017C609.381 918.257 608.965 920.417 608.133 922.497C607.301 924.545 606.133 926.385 604.629 928.017C603.157 929.617 601.397 930.881 599.349 931.809C597.333 932.737 595.125 933.201 592.725 933.201ZM582.837 915.921C582.837 917.393 583.061 918.817 583.509 920.193C583.957 921.569 584.597 922.801 585.429 923.889C586.293 924.945 587.333 925.793 588.549 926.433C589.797 927.041 591.205 927.345 592.773 927.345C594.373 927.345 595.797 927.025 597.045 926.385C598.293 925.713 599.333 924.833 600.165 923.745C600.997 922.625 601.621 921.393 602.037 920.049C602.485 918.673 602.709 917.297 602.709 915.921C602.709 914.449 602.469 913.041 601.989 911.697C601.541 910.321 600.885 909.105 600.021 908.049C599.189 906.961 598.149 906.113 596.901 905.505C595.685 904.865 594.309 904.545 592.773 904.545C591.141 904.545 589.701 904.881 588.453 905.553C587.237 906.193 586.213 907.057 585.381 908.145C584.549 909.233 583.909 910.449 583.461 911.793C583.045 913.137 582.837 914.513 582.837 915.921Z" fill="url(#paint25_linear_16_593)"/>
<path opacity="0.4" d="M837.236 277.297L858.878 239.711L881.387 277.297" stroke="url(#paint26_linear_16_593)" stroke-width="4"/>
<path opacity="0.4" d="M840.506 356.891H878.116V343.118M878.116 343.118V313.777L840.506 330.544L878.116 343.118Z" stroke="url(#paint27_linear_16_593)" stroke-width="4"/>
<path opacity="0.4" d="M883.022 797.973H837.236L860.569 759.281L883.022 797.973Z" stroke="url(#paint28_linear_16_593)" stroke-width="4"/>
<path opacity="0.4" d="M837.236 679.688V723.906H883.022M837.236 679.688H883.022V723.906M837.236 679.688L883.022 723.906" stroke="url(#paint29_linear_16_593)" stroke-width="4"/>
<path opacity="0.4" d="M874.846 831.137V852.141M874.846 873.145V852.141M874.846 852.141L843.777 873.145M874.846 852.141L843.777 831.137" stroke="url(#paint30_linear_16_593)" stroke-width="4"/>
<path opacity="0.4" d="M837.236 428.746L858.878 390.055L881.387 428.746" stroke="url(#paint31_linear_16_593)" stroke-width="4"/>
<path opacity="0.4" d="M838.871 167.855H881.387M852.32 189.155H881.387M881.387 209.863H838.871" stroke="url(#paint32_linear_16_593)" stroke-width="4"/>
<path opacity="0.4" d="M838.871 612.509V631.557H858.422M879.752 612.509V631.557H858.422M858.422 608.938V631.557M858.422 631.557V655.367" stroke="url(#paint33_linear_16_593)" stroke-width="4"/>
<path opacity="0.4" d="M840.506 138.008H878.116V124.589M878.116 124.589V96L840.506 112.336L878.116 124.589Z" stroke="url(#paint34_linear_16_593)" stroke-width="4"/>
<path opacity="0.4" d="M883.022 580.195H837.236L860.569 541.504L883.022 580.195Z" stroke="url(#paint35_linear_16_593)" stroke-width="4"/>
<path opacity="0.4" d="M840.506 903.162V921.757H859.276M879.752 903.162V921.757H859.276M859.276 899.676V921.757M859.276 921.757V945" stroke="url(#paint36_linear_16_593)" stroke-width="4"/>
<path d="M859.267 493.201C856.771 493.201 854.499 492.721 852.451 491.761C850.435 490.801 848.691 489.505 847.219 487.873C845.779 486.209 844.659 484.353 843.859 482.305C843.059 480.225 842.659 478.097 842.659 475.921C842.659 473.649 843.075 471.489 843.907 469.441C844.771 467.361 845.939 465.521 847.411 463.921C848.915 462.289 850.675 461.009 852.691 460.081C854.739 459.121 856.979 458.641 859.411 458.641C861.875 458.641 864.115 459.137 866.131 460.129C868.179 461.121 869.923 462.449 871.363 464.113C872.803 465.777 873.923 467.633 874.723 469.681C875.523 471.729 875.923 473.841 875.923 476.017C875.923 478.257 875.507 480.417 874.675 482.497C873.843 484.545 872.675 486.385 871.171 488.017C869.699 489.617 867.939 490.881 865.891 491.809C863.875 492.737 861.667 493.201 859.267 493.201ZM849.379 475.921C849.379 477.393 849.603 478.817 850.051 480.193C850.499 481.569 851.139 482.801 851.971 483.889C852.835 484.945 853.875 485.793 855.091 486.433C856.339 487.041 857.747 487.345 859.315 487.345C860.915 487.345 862.339 487.025 863.587 486.385C864.835 485.713 865.875 484.833 866.707 483.745C867.539 482.625 868.163 481.393 868.579 480.049C869.027 478.673 869.251 477.297 869.251 475.921C869.251 474.449 869.011 473.041 868.531 471.697C868.083 470.321 867.427 469.105 866.563 468.049C865.731 466.961 864.691 466.113 863.443 465.505C862.227 464.865 860.851 464.545 859.315 464.545C857.683 464.545 856.243 464.881 854.995 465.553C853.779 466.193 852.755 467.057 851.923 468.145C851.091 469.233 850.451 470.449 850.003 471.793C849.587 473.137 849.379 474.513 849.379 475.921Z" fill="url(#paint37_linear_16_593)"/>
<path opacity="0.4" d="M601.763 269.973H555.977L579.31 231.281L601.763 269.973Z" stroke="url(#paint38_linear_16_593)" stroke-width="4"/>
<path opacity="0.4" d="M555.977 151.688V195.906H601.763M555.977 151.688H601.763V195.906M555.977 151.688L601.763 195.906" stroke="url(#paint39_linear_16_593)" stroke-width="4"/>
<path opacity="0.4" d="M593.587 303.137V324.141M593.587 345.145V324.141M593.587 324.141L562.518 345.145M593.587 324.141L562.518 303.137" stroke="url(#paint40_linear_16_593)" stroke-width="4"/>
<path opacity="0.4" d="M557.612 84.509V103.557H577.164M598.493 84.509V103.557H577.164M577.164 80.9375V103.557M577.164 103.557V127.367" stroke="url(#paint41_linear_16_593)" stroke-width="4"/>
<path opacity="0.4" d="M601.763 52.1953H555.977L579.31 13.5039L601.763 52.1953Z" stroke="url(#paint42_linear_16_593)" stroke-width="4"/>
<path opacity="0.4" d="M559.247 375.162V393.757H578.017M598.493 375.162V393.757H578.017M578.017 371.676V393.757M578.017 393.757V417" stroke="url(#paint43_linear_16_593)" stroke-width="4"/>
<path opacity="0.4" d="M1103.78 165L1125.42 131L1147.93 165" stroke="url(#paint44_linear_16_593)" stroke-width="4"/>
<path opacity="0.4" d="M1107.05 237H1144.66V224.542M1144.66 224.542V198L1107.05 213.167L1144.66 224.542Z" stroke="url(#paint45_linear_16_593)" stroke-width="4"/>
<path opacity="0.4" d="M1149.56 636H1103.78L1127.11 601L1149.56 636Z" stroke="url(#paint46_linear_16_593)" stroke-width="4"/>
<path opacity="0.4" d="M1103.78 529V569H1149.56M1103.78 529H1149.56V569M1103.78 529L1149.56 569" stroke="url(#paint47_linear_16_593)" stroke-width="4"/>
<path opacity="0.4" d="M1141.39 666V685M1141.39 704V685M1141.39 685L1110.32 704M1141.39 685L1110.32 666" stroke="url(#paint48_linear_16_593)" stroke-width="4"/>
<path opacity="0.4" d="M1103.78 302L1125.42 267L1147.93 302" stroke="url(#paint49_linear_16_593)" stroke-width="4"/>
<path opacity="0.4" d="M1105.41 66H1147.93M1118.86 85.2676H1147.93M1147.93 104H1105.41" stroke="url(#paint50_linear_16_593)" stroke-width="4"/>
<path opacity="0.4" d="M1105.41 468.231V485.462H1124.96M1146.29 468.231V485.462H1124.96M1124.96 465V485.462M1124.96 485.462V507" stroke="url(#paint51_linear_16_593)" stroke-width="4"/>
<path opacity="0.4" d="M1107.05 39H1144.66V26.8611M1144.66 26.8611V1L1107.05 15.7778L1144.66 26.8611Z" stroke="url(#paint52_linear_16_593)" stroke-width="4"/>
<path opacity="0.4" d="M1149.56 439H1103.78L1127.11 404L1149.56 439Z" stroke="url(#paint53_linear_16_593)" stroke-width="4"/>
<path opacity="0.4" d="M1107.05 731.154V747.974H1125.82M1146.29 731.154V747.974H1125.82M1125.82 728V747.974M1125.82 747.974V769" stroke="url(#paint54_linear_16_593)" stroke-width="4"/>
<path d="M1125.81 364.24C1123.31 364.24 1121.04 363.76 1118.99 362.8C1116.98 361.84 1115.23 360.544 1113.76 358.912C1112.32 357.248 1111.2 355.392 1110.4 353.344C1109.6 351.264 1109.2 349.136 1109.2 346.96C1109.2 344.688 1109.62 342.528 1110.45 340.48C1111.31 338.4 1112.48 336.56 1113.95 334.96C1115.46 333.328 1117.22 332.048 1119.23 331.12C1121.28 330.16 1123.52 329.68 1125.95 329.68C1128.42 329.68 1130.66 330.176 1132.67 331.168C1134.72 332.16 1136.46 333.488 1137.9 335.152C1139.34 336.816 1140.46 338.672 1141.26 340.72C1142.06 342.768 1142.46 344.88 1142.46 347.056C1142.46 349.296 1142.05 351.456 1141.22 353.536C1140.38 355.584 1139.22 357.424 1137.71 359.056C1136.24 360.656 1134.48 361.92 1132.43 362.848C1130.42 363.776 1128.21 364.24 1125.81 364.24ZM1115.92 346.96C1115.92 348.432 1116.14 349.856 1116.59 351.232C1117.04 352.608 1117.68 353.84 1118.51 354.928C1119.38 355.984 1120.42 356.832 1121.63 357.472C1122.88 358.08 1124.29 358.384 1125.86 358.384C1127.46 358.384 1128.88 358.064 1130.13 357.424C1131.38 356.752 1132.42 355.872 1133.25 354.784C1134.08 353.664 1134.7 352.432 1135.12 351.088C1135.57 349.712 1135.79 348.336 1135.79 346.96C1135.79 345.488 1135.55 344.08 1135.07 342.736C1134.62 341.36 1133.97 340.144 1133.1 339.088C1132.27 338 1131.23 337.152 1129.98 336.544C1128.77 335.904 1127.39 335.584 1125.86 335.584C1124.22 335.584 1122.78 335.92 1121.54 336.592C1120.32 337.232 1119.3 338.096 1118.46 339.184C1117.63 340.272 1116.99 341.488 1116.54 342.832C1116.13 344.176 1115.92 345.552 1115.92 346.96Z" fill="url(#paint55_linear_16_593)"/>
<path opacity="0.4" d="M1646.67 381L1668.32 347L1690.82 381" stroke="url(#paint56_linear_16_593)" stroke-width="4"/>
<path opacity="0.4" d="M1649.94 453H1687.55V440.542M1687.55 440.542V414L1649.94 429.167L1687.55 440.542Z" stroke="url(#paint57_linear_16_593)" stroke-width="4"/>
<path opacity="0.4" d="M1692.46 852H1646.67L1670.01 817L1692.46 852Z" stroke="url(#paint58_linear_16_593)" stroke-width="4"/>
<path opacity="0.4" d="M1646.67 745V785H1692.46M1646.67 745H1692.46V785M1646.67 745L1692.46 785" stroke="url(#paint59_linear_16_593)" stroke-width="4"/>
<path opacity="0.4" d="M1684.28 882V901M1684.28 920V901M1684.28 901L1653.21 920M1684.28 901L1653.21 882" stroke="url(#paint60_linear_16_593)" stroke-width="4"/>
<path opacity="0.4" d="M1646.67 518L1668.32 483L1690.82 518" stroke="url(#paint61_linear_16_593)" stroke-width="4"/>
<path opacity="0.4" d="M1648.31 282H1690.82M1661.76 301.268H1690.82M1690.82 320H1648.31" stroke="url(#paint62_linear_16_593)" stroke-width="4"/>
<path opacity="0.4" d="M1648.31 684.231V701.462H1667.86M1689.19 684.231V701.462H1667.86M1667.86 681V701.462M1667.86 701.462V723" stroke="url(#paint63_linear_16_593)" stroke-width="4"/>
<path opacity="0.4" d="M1649.94 255H1687.55V242.861M1687.55 242.861V217L1649.94 231.778L1687.55 242.861Z" stroke="url(#paint64_linear_16_593)" stroke-width="4"/>
<path opacity="0.4" d="M1692.46 655H1646.67L1670.01 620L1692.46 655Z" stroke="url(#paint65_linear_16_593)" stroke-width="4"/>
<path opacity="0.4" d="M1649.94 947.154V963.974H1668.71M1689.19 947.154V963.974H1668.71M1668.71 944V963.974M1668.71 963.974V985" stroke="url(#paint66_linear_16_593)" stroke-width="4"/>
<path d="M1668.7 580.24C1666.21 580.24 1663.94 579.76 1661.89 578.8C1659.87 577.84 1658.13 576.544 1656.66 574.912C1655.22 573.248 1654.1 571.392 1653.3 569.344C1652.5 567.264 1652.1 565.136 1652.1 562.96C1652.1 560.688 1652.51 558.528 1653.34 556.48C1654.21 554.4 1655.38 552.56 1656.85 550.96C1658.35 549.328 1660.11 548.048 1662.13 547.12C1664.18 546.16 1666.42 545.68 1668.85 545.68C1671.31 545.68 1673.55 546.176 1675.57 547.168C1677.62 548.16 1679.36 549.488 1680.8 551.152C1682.24 552.816 1683.36 554.672 1684.16 556.72C1684.96 558.768 1685.36 560.88 1685.36 563.056C1685.36 565.296 1684.94 567.456 1684.11 569.536C1683.28 571.584 1682.11 573.424 1680.61 575.056C1679.14 576.656 1677.38 577.92 1675.33 578.848C1673.31 579.776 1671.1 580.24 1668.7 580.24ZM1658.82 562.96C1658.82 564.432 1659.04 565.856 1659.49 567.232C1659.94 568.608 1660.58 569.84 1661.41 570.928C1662.27 571.984 1663.31 572.832 1664.53 573.472C1665.78 574.08 1667.18 574.384 1668.75 574.384C1670.35 574.384 1671.78 574.064 1673.02 573.424C1674.27 572.752 1675.31 571.872 1676.14 570.784C1676.98 569.664 1677.6 568.432 1678.02 567.088C1678.46 565.712 1678.69 564.336 1678.69 562.96C1678.69 561.488 1678.45 560.08 1677.97 558.736C1677.52 557.36 1676.86 556.144 1676 555.088C1675.17 554 1674.13 553.152 1672.88 552.544C1671.66 551.904 1670.29 551.584 1668.75 551.584C1667.12 551.584 1665.68 551.92 1664.43 552.592C1663.22 553.232 1662.19 554.096 1661.36 555.184C1660.53 556.272 1659.89 557.488 1659.44 558.832C1659.02 560.176 1658.82 561.552 1658.82 562.96Z" fill="url(#paint67_linear_16_593)"/>
<path opacity="0.4" d="M1134.85 738L1156.49 704L1179 738" stroke="url(#paint68_linear_16_593)" stroke-width="4"/>
<path opacity="0.4" d="M1138.12 810H1175.73V797.542M1175.73 797.542V771L1138.12 786.167L1175.73 797.542Z" stroke="url(#paint69_linear_16_593)" stroke-width="4"/>
<path opacity="0.4" d="M1134.85 875L1156.49 840L1179 875" stroke="url(#paint70_linear_16_593)" stroke-width="4"/>
<path opacity="0.4" d="M1136.48 639H1179M1149.93 658.268H1179M1179 677H1136.48" stroke="url(#paint71_linear_16_593)" stroke-width="4"/>
<path opacity="0.4" d="M1138.12 612H1175.73V599.861M1175.73 599.861V574L1138.12 588.778L1175.73 599.861Z" stroke="url(#paint72_linear_16_593)" stroke-width="4"/>
<path opacity="0.4" d="M1180.63 1012H1134.85L1158.18 977L1180.63 1012Z" stroke="url(#paint73_linear_16_593)" stroke-width="4"/>
<path d="M1156.88 937.24C1154.38 937.24 1152.11 936.76 1150.06 935.8C1148.05 934.84 1146.3 933.544 1144.83 931.912C1143.39 930.248 1142.27 928.392 1141.47 926.344C1140.67 924.264 1140.27 922.136 1140.27 919.96C1140.27 917.688 1140.69 915.528 1141.52 913.48C1142.38 911.4 1143.55 909.56 1145.02 907.96C1146.53 906.328 1148.29 905.048 1150.3 904.12C1152.35 903.16 1154.59 902.68 1157.02 902.68C1159.49 902.68 1161.73 903.176 1163.74 904.168C1165.79 905.16 1167.53 906.488 1168.97 908.152C1170.41 909.816 1171.53 911.672 1172.33 913.72C1173.13 915.768 1173.53 917.88 1173.53 920.056C1173.53 922.296 1173.12 924.456 1172.29 926.536C1171.45 928.584 1170.29 930.424 1168.78 932.056C1167.31 933.656 1165.55 934.92 1163.5 935.848C1161.49 936.776 1159.28 937.24 1156.88 937.24ZM1146.99 919.96C1146.99 921.432 1147.21 922.856 1147.66 924.232C1148.11 925.608 1148.75 926.84 1149.58 927.928C1150.45 928.984 1151.49 929.832 1152.7 930.472C1153.95 931.08 1155.36 931.384 1156.93 931.384C1158.53 931.384 1159.95 931.064 1161.2 930.424C1162.45 929.752 1163.49 928.872 1164.32 927.784C1165.15 926.664 1165.77 925.432 1166.19 924.088C1166.64 922.712 1166.86 921.336 1166.86 919.96C1166.86 918.488 1166.62 917.08 1166.14 915.736C1165.69 914.36 1165.04 913.144 1164.17 912.088C1163.34 911 1162.3 910.152 1161.05 909.544C1159.84 908.904 1158.46 908.584 1156.93 908.584C1155.29 908.584 1153.85 908.92 1152.61 909.592C1151.39 910.232 1150.37 911.096 1149.53 912.184C1148.7 913.272 1148.06 914.488 1147.61 915.832C1147.2 917.176 1146.99 918.552 1146.99 919.96Z" fill="url(#paint74_linear_16_593)"/>
<path opacity="0.4" d="M53.9625 47H8.17615L31.5096 12L53.9625 47Z" stroke="url(#paint75_linear_16_593)" stroke-width="4"/>
<path opacity="0.4" d="M45.7863 77V96M45.7863 115V96M45.7863 96L14.717 115M45.7863 96L14.717 77" stroke="url(#paint76_linear_16_593)" stroke-width="4"/>
<path opacity="0.4" d="M11.4465 142.154V158.974H30.2161M50.692 142.154V158.974H30.2161M30.2161 139V158.974M30.2161 158.974V180" stroke="url(#paint77_linear_16_593)" stroke-width="4"/>
<path opacity="0.4" d="M196.227 1043L217.87 1009L240.378 1043" stroke="url(#paint78_linear_16_593)" stroke-width="4"/>
<path opacity="0.4" d="M197.862 944H240.378M211.311 963.268H240.378M240.378 982H197.862" stroke="url(#paint79_linear_16_593)" stroke-width="4"/>
<path opacity="0.4" d="M199.498 917H237.108V904.861M237.108 904.861V879L199.498 893.778L237.108 904.861Z" stroke="url(#paint80_linear_16_593)" stroke-width="4"/>
<path opacity="0.4" d="M1306.55 1023H1349.06M1319.99 1042.27H1349.06M1349.06 1061H1306.55" stroke="url(#paint81_linear_16_593)" stroke-width="4"/>
<path opacity="0.4" d="M1308.18 996H1345.79V983.861M1345.79 983.861V958L1308.18 972.778L1345.79 983.861Z" stroke="url(#paint82_linear_16_593)" stroke-width="4"/>
<path opacity="0.4" d="M39.2455 639L60.8882 605L83.3966 639" stroke="url(#paint83_linear_16_593)" stroke-width="4"/>
<path opacity="0.4" d="M42.5159 711H80.1261V698.542M80.1261 698.542V672L42.5159 687.167L80.1261 698.542Z" stroke="url(#paint84_linear_16_593)" stroke-width="4"/>
<path opacity="0.4" d="M39.2455 1003V1043H85.0318M39.2455 1003H85.0318V1043M39.2455 1003L85.0318 1043" stroke="url(#paint85_linear_16_593)" stroke-width="4"/>
<path opacity="0.4" d="M39.2455 776L60.8882 741L83.3966 776" stroke="url(#paint86_linear_16_593)" stroke-width="4"/>
<path opacity="0.4" d="M40.8807 540H83.3966M54.3296 559.268H83.3966M83.3966 578H40.8807" stroke="url(#paint87_linear_16_593)" stroke-width="4"/>
<path opacity="0.4" d="M40.8807 942.231V959.462H60.4324M81.7614 942.231V959.462H60.4324M60.4324 939V959.462M60.4324 959.462V981" stroke="url(#paint88_linear_16_593)" stroke-width="4"/>
<path opacity="0.4" d="M42.5159 513H80.1261V500.861M80.1261 500.861V475L42.5159 489.778L80.1261 500.861Z" stroke="url(#paint89_linear_16_593)" stroke-width="4"/>
<path opacity="0.4" d="M85.0318 913H39.2455L62.5789 878L85.0318 913Z" stroke="url(#paint90_linear_16_593)" stroke-width="4"/>
<path d="M61.2764 838.24C58.7804 838.24 56.5084 837.76 54.4604 836.8C52.4444 835.84 50.7004 834.544 49.2284 832.912C47.7884 831.248 46.6684 829.392 45.8684 827.344C45.0684 825.264 44.6684 823.136 44.6684 820.96C44.6684 818.688 45.0844 816.528 45.9164 814.48C46.7804 812.4 47.9484 810.56 49.4204 808.96C50.9244 807.328 52.6844 806.048 54.7004 805.12C56.7484 804.16 58.9884 803.68 61.4204 803.68C63.8844 803.68 66.1244 804.176 68.1404 805.168C70.1884 806.16 71.9324 807.488 73.3724 809.152C74.8124 810.816 75.9324 812.672 76.7324 814.72C77.5324 816.768 77.9324 818.88 77.9324 821.056C77.9324 823.296 77.5164 825.456 76.6844 827.536C75.8524 829.584 74.6844 831.424 73.1804 833.056C71.7084 834.656 69.9484 835.92 67.9004 836.848C65.8844 837.776 63.6764 838.24 61.2764 838.24ZM51.3884 820.96C51.3884 822.432 51.6124 823.856 52.0604 825.232C52.5084 826.608 53.1484 827.84 53.9804 828.928C54.8444 829.984 55.8844 830.832 57.1004 831.472C58.3484 832.08 59.7564 832.384 61.3244 832.384C62.9244 832.384 64.3484 832.064 65.5964 831.424C66.8444 830.752 67.8844 829.872 68.7164 828.784C69.5484 827.664 70.1724 826.432 70.5884 825.088C71.0364 823.712 71.2604 822.336 71.2604 820.96C71.2604 819.488 71.0204 818.08 70.5404 816.736C70.0924 815.36 69.4364 814.144 68.5724 813.088C67.7404 812 66.7004 811.152 65.4524 810.544C64.2364 809.904 62.8604 809.584 61.3244 809.584C59.6924 809.584 58.2524 809.92 57.0044 810.592C55.7884 811.232 54.7644 812.096 53.9324 813.184C53.1004 814.272 52.4604 815.488 52.0124 816.832C51.5964 818.176 51.3884 819.552 51.3884 820.96Z" fill="url(#paint91_linear_16_593)"/>
<path opacity="0.4" d="M291.07 210L312.713 176L335.221 210" stroke="url(#paint92_linear_16_593)" stroke-width="4"/>
<path opacity="0.4" d="M294.341 282H331.951V269.542M331.951 269.542V243L294.341 258.167L331.951 269.542Z" stroke="url(#paint93_linear_16_593)" stroke-width="4"/>
<path opacity="0.4" d="M336.857 681H291.07L314.404 646L336.857 681Z" stroke="url(#paint94_linear_16_593)" stroke-width="4"/>
<path opacity="0.4" d="M291.07 574V614H336.857M291.07 574H336.857V614M291.07 574L336.857 614" stroke="url(#paint95_linear_16_593)" stroke-width="4"/>
<path opacity="0.4" d="M328.681 711V730M328.681 749V730M328.681 730L297.611 749M328.681 730L297.611 711" stroke="url(#paint96_linear_16_593)" stroke-width="4"/>
<path opacity="0.4" d="M291.07 347L312.713 312L335.221 347" stroke="url(#paint97_linear_16_593)" stroke-width="4"/>
<path opacity="0.4" d="M292.706 111H335.221M306.154 130.268H335.221M335.221 149H292.706" stroke="url(#paint98_linear_16_593)" stroke-width="4"/>
<path opacity="0.4" d="M292.706 513.231V530.462H312.257M333.586 513.231V530.462H312.257M312.257 510V530.462M312.257 530.462V552" stroke="url(#paint99_linear_16_593)" stroke-width="4"/>
<path opacity="0.4" d="M294.341 84H331.951V71.8611M331.951 71.8611V46L294.341 60.7778L331.951 71.8611Z" stroke="url(#paint100_linear_16_593)" stroke-width="4"/>
<path opacity="0.4" d="M336.857 484H291.07L314.404 449L336.857 484Z" stroke="url(#paint101_linear_16_593)" stroke-width="4"/>
<path opacity="0.4" d="M294.341 776.154V792.974H313.11M333.586 776.154V792.974H313.11M313.11 773V792.974M313.11 792.974V814" stroke="url(#paint102_linear_16_593)" stroke-width="4"/>
<path d="M313.101 409.24C310.605 409.24 308.333 408.76 306.285 407.8C304.269 406.84 302.525 405.544 301.053 403.912C299.613 402.248 298.493 400.392 297.693 398.344C296.893 396.264 296.493 394.136 296.493 391.96C296.493 389.688 296.909 387.528 297.741 385.48C298.605 383.4 299.773 381.56 301.245 379.96C302.749 378.328 304.509 377.048 306.525 376.12C308.573 375.16 310.813 374.68 313.245 374.68C315.709 374.68 317.949 375.176 319.965 376.168C322.013 377.16 323.757 378.488 325.197 380.152C326.637 381.816 327.757 383.672 328.557 385.72C329.357 387.768 329.757 389.88 329.757 392.056C329.757 394.296 329.341 396.456 328.509 398.536C327.677 400.584 326.509 402.424 325.005 404.056C323.533 405.656 321.773 406.92 319.725 407.848C317.709 408.776 315.501 409.24 313.101 409.24ZM303.213 391.96C303.213 393.432 303.437 394.856 303.885 396.232C304.333 397.608 304.973 398.84 305.805 399.928C306.669 400.984 307.709 401.832 308.925 402.472C310.173 403.08 311.581 403.384 313.149 403.384C314.749 403.384 316.173 403.064 317.421 402.424C318.669 401.752 319.709 400.872 320.541 399.784C321.373 398.664 321.997 397.432 322.413 396.088C322.861 394.712 323.085 393.336 323.085 391.96C323.085 390.488 322.845 389.08 322.365 387.736C321.917 386.36 321.261 385.144 320.397 384.088C319.565 383 318.525 382.152 317.277 381.544C316.061 380.904 314.685 380.584 313.149 380.584C311.517 380.584 310.077 380.92 308.829 381.592C307.613 382.232 306.589 383.096 305.757 384.184C304.925 385.272 304.285 386.488 303.837 387.832C303.421 389.176 303.213 390.552 303.213 391.96Z" fill="url(#paint103_linear_16_593)"/>
<defs>
<linearGradient id="paint0_linear_16_593" x1="1008.93" y1="16" x2="1008.93" y2="57" gradientUnits="userSpaceOnUse">
<stop stop-color="#FA5770"/>
<stop offset="1" stop-color="#E83752" stop-opacity="0"/>
</linearGradient>
<linearGradient id="paint1_linear_16_593" x1="1304.07" y1="133" x2="1304.07" y2="168" gradientUnits="userSpaceOnUse">
<stop stop-color="#FA5770"/>
<stop offset="1" stop-color="#E83752" stop-opacity="0"/>
</linearGradient>
<linearGradient id="paint2_linear_16_593" x1="1304.07" y1="61" x2="1304.07" y2="101" gradientUnits="userSpaceOnUse">
<stop stop-color="#FA5770"/>
<stop offset="1" stop-color="#E83752" stop-opacity="0"/>
</linearGradient>
<linearGradient id="paint3_linear_16_593" x1="1303.25" y1="198" x2="1303.25" y2="236" gradientUnits="userSpaceOnUse">
<stop stop-color="#FA5770"/>
<stop offset="1" stop-color="#E83752" stop-opacity="0"/>
</linearGradient>
<linearGradient id="paint4_linear_16_593" x1="1303.25" y1="-3" x2="1303.25" y2="39" gradientUnits="userSpaceOnUse">
<stop stop-color="#FA5770"/>
<stop offset="1" stop-color="#E83752" stop-opacity="0"/>
</linearGradient>
<linearGradient id="paint5_linear_16_593" x1="1304.07" y1="260" x2="1304.07" y2="301" gradientUnits="userSpaceOnUse">
<stop stop-color="#FA5770"/>
<stop offset="1" stop-color="#E83752" stop-opacity="0"/>
</linearGradient>
<linearGradient id="paint6_linear_16_593" x1="1480.7" y1="400" x2="1480.7" y2="434" gradientUnits="userSpaceOnUse">
<stop stop-color="#FA5770"/>
<stop offset="1" stop-color="#E83752" stop-opacity="0"/>
</linearGradient>
<linearGradient id="paint7_linear_16_593" x1="1480.7" y1="467" x2="1480.7" y2="506" gradientUnits="userSpaceOnUse">
<stop stop-color="#FA5770"/>
<stop offset="1" stop-color="#E83752" stop-opacity="0"/>
</linearGradient>
<linearGradient id="paint8_linear_16_593" x1="1481.51" y1="870" x2="1481.51" y2="905" gradientUnits="userSpaceOnUse">
<stop stop-color="#FA5770"/>
<stop offset="1" stop-color="#E83752" stop-opacity="0"/>
</linearGradient>
<linearGradient id="paint9_linear_16_593" x1="1481.51" y1="798" x2="1481.51" y2="838" gradientUnits="userSpaceOnUse">
<stop stop-color="#FA5770"/>
<stop offset="1" stop-color="#E83752" stop-opacity="0"/>
</linearGradient>
<linearGradient id="paint10_linear_16_593" x1="1480.7" y1="935" x2="1480.7" y2="973" gradientUnits="userSpaceOnUse">
<stop stop-color="#FA5770"/>
<stop offset="1" stop-color="#E83752" stop-opacity="0"/>
</linearGradient>
<linearGradient id="paint11_linear_16_593" x1="1480.7" y1="536" x2="1480.7" y2="571" gradientUnits="userSpaceOnUse">
<stop stop-color="#FA5770"/>
<stop offset="1" stop-color="#E83752" stop-opacity="0"/>
</linearGradient>
<linearGradient id="paint12_linear_16_593" x1="1481.51" y1="335" x2="1481.51" y2="373" gradientUnits="userSpaceOnUse">
<stop stop-color="#FA5770"/>
<stop offset="1" stop-color="#E83752" stop-opacity="0"/>
</linearGradient>
<linearGradient id="paint13_linear_16_593" x1="1480.7" y1="734" x2="1480.7" y2="776" gradientUnits="userSpaceOnUse">
<stop stop-color="#FA5770"/>
<stop offset="1" stop-color="#E83752" stop-opacity="0"/>
</linearGradient>
<linearGradient id="paint14_linear_16_593" x1="1480.7" y1="270" x2="1480.7" y2="308" gradientUnits="userSpaceOnUse">
<stop stop-color="#FA5770"/>
<stop offset="1" stop-color="#E83752" stop-opacity="0"/>
</linearGradient>
<linearGradient id="paint15_linear_16_593" x1="1481.51" y1="673" x2="1481.51" y2="708" gradientUnits="userSpaceOnUse">
<stop stop-color="#FA5770"/>
<stop offset="1" stop-color="#E83752" stop-opacity="0"/>
</linearGradient>
<linearGradient id="paint16_linear_16_593" x1="1481.51" y1="997" x2="1481.51" y2="1038" gradientUnits="userSpaceOnUse">
<stop stop-color="#FA5770"/>
<stop offset="1" stop-color="#E83752" stop-opacity="0"/>
</linearGradient>
<linearGradient id="paint17_linear_16_593" x1="1510.95" y1="616" x2="1467.62" y2="643.279" gradientUnits="userSpaceOnUse">
<stop stop-color="#FA5770"/>
<stop offset="1" stop-color="#E83752"/>
</linearGradient>
<linearGradient id="paint18_linear_16_593" x1="1645.04" y1="-11" x2="1645.04" y2="30" gradientUnits="userSpaceOnUse">
<stop stop-color="#FA5770"/>
<stop offset="1" stop-color="#E83752" stop-opacity="0"/>
</linearGradient>
<linearGradient id="paint19_linear_16_593" x1="592.77" y1="679.711" x2="592.77" y2="717.297" gradientUnits="userSpaceOnUse">
<stop stop-color="#FA5770"/>
<stop offset="1" stop-color="#E83752" stop-opacity="0"/>
</linearGradient>
<linearGradient id="paint20_linear_16_593" x1="592.769" y1="753.777" x2="592.769" y2="796.891" gradientUnits="userSpaceOnUse">
<stop stop-color="#FA5770"/>
<stop offset="1" stop-color="#E83752" stop-opacity="0"/>
</linearGradient>
<linearGradient id="paint21_linear_16_593" x1="592.77" y1="830.055" x2="592.77" y2="868.746" gradientUnits="userSpaceOnUse">
<stop stop-color="#FA5770"/>
<stop offset="1" stop-color="#E83752" stop-opacity="0"/>
</linearGradient>
<linearGradient id="paint22_linear_16_593" x1="593.587" y1="607.855" x2="593.587" y2="649.863" gradientUnits="userSpaceOnUse">
<stop stop-color="#FA5770"/>
<stop offset="1" stop-color="#E83752" stop-opacity="0"/>
</linearGradient>
<linearGradient id="paint23_linear_16_593" x1="592.769" y1="536" x2="592.769" y2="578.008" gradientUnits="userSpaceOnUse">
<stop stop-color="#FA5770"/>
<stop offset="1" stop-color="#E83752" stop-opacity="0"/>
</linearGradient>
<linearGradient id="paint24_linear_16_593" x1="593.587" y1="981.504" x2="593.587" y2="1020.2" gradientUnits="userSpaceOnUse">
<stop stop-color="#FA5770"/>
<stop offset="1" stop-color="#E83752" stop-opacity="0"/>
</linearGradient>
<linearGradient id="paint25_linear_16_593" x1="623.021" y1="918.492" x2="577.336" y2="944.511" gradientUnits="userSpaceOnUse">
<stop stop-color="#FA5770"/>
<stop offset="1" stop-color="#E83752"/>
</linearGradient>
<linearGradient id="paint26_linear_16_593" x1="859.311" y1="239.711" x2="859.311" y2="277.297" gradientUnits="userSpaceOnUse">
<stop stop-color="#FA5770"/>
<stop offset="1" stop-color="#E83752" stop-opacity="0"/>
</linearGradient>
<linearGradient id="paint27_linear_16_593" x1="859.311" y1="313.777" x2="859.311" y2="356.891" gradientUnits="userSpaceOnUse">
<stop stop-color="#FA5770"/>
<stop offset="1" stop-color="#E83752" stop-opacity="0"/>
</linearGradient>
<linearGradient id="paint28_linear_16_593" x1="860.129" y1="759.281" x2="860.129" y2="797.973" gradientUnits="userSpaceOnUse">
<stop stop-color="#FA5770"/>
<stop offset="1" stop-color="#E83752" stop-opacity="0"/>
</linearGradient>
<linearGradient id="paint29_linear_16_593" x1="860.129" y1="679.688" x2="860.129" y2="723.906" gradientUnits="userSpaceOnUse">
<stop stop-color="#FA5770"/>
<stop offset="1" stop-color="#E83752" stop-opacity="0"/>
</linearGradient>
<linearGradient id="paint30_linear_16_593" x1="859.311" y1="831.137" x2="859.311" y2="873.145" gradientUnits="userSpaceOnUse">
<stop stop-color="#FA5770"/>
<stop offset="1" stop-color="#E83752" stop-opacity="0"/>
</linearGradient>
<linearGradient id="paint31_linear_16_593" x1="859.311" y1="390.055" x2="859.311" y2="428.746" gradientUnits="userSpaceOnUse">
<stop stop-color="#FA5770"/>
<stop offset="1" stop-color="#E83752" stop-opacity="0"/>
</linearGradient>
<linearGradient id="paint32_linear_16_593" x1="860.129" y1="167.855" x2="860.129" y2="209.863" gradientUnits="userSpaceOnUse">
<stop stop-color="#FA5770"/>
<stop offset="1" stop-color="#E83752" stop-opacity="0"/>
</linearGradient>
<linearGradient id="paint33_linear_16_593" x1="859.311" y1="608.938" x2="859.311" y2="655.367" gradientUnits="userSpaceOnUse">
<stop stop-color="#FA5770"/>
<stop offset="1" stop-color="#E83752" stop-opacity="0"/>
</linearGradient>
<linearGradient id="paint34_linear_16_593" x1="859.311" y1="96" x2="859.311" y2="138.008" gradientUnits="userSpaceOnUse">
<stop stop-color="#FA5770"/>
<stop offset="1" stop-color="#E83752" stop-opacity="0"/>
</linearGradient>
<linearGradient id="paint35_linear_16_593" x1="860.129" y1="541.504" x2="860.129" y2="580.195" gradientUnits="userSpaceOnUse">
<stop stop-color="#FA5770"/>
<stop offset="1" stop-color="#E83752" stop-opacity="0"/>
</linearGradient>
<linearGradient id="paint36_linear_16_593" x1="860.129" y1="899.676" x2="860.129" y2="945" gradientUnits="userSpaceOnUse">
<stop stop-color="#FA5770"/>
<stop offset="1" stop-color="#E83752" stop-opacity="0"/>
</linearGradient>
<linearGradient id="paint37_linear_16_593" x1="889.563" y1="478.492" x2="843.878" y2="504.511" gradientUnits="userSpaceOnUse">
<stop stop-color="#FA5770"/>
<stop offset="1" stop-color="#E83752"/>
</linearGradient>
<linearGradient id="paint38_linear_16_593" x1="578.87" y1="231.281" x2="578.87" y2="269.973" gradientUnits="userSpaceOnUse">
<stop stop-color="#FA5770"/>
<stop offset="1" stop-color="#E83752" stop-opacity="0"/>
</linearGradient>
<linearGradient id="paint39_linear_16_593" x1="578.87" y1="151.688" x2="578.87" y2="195.906" gradientUnits="userSpaceOnUse">
<stop stop-color="#FA5770"/>
<stop offset="1" stop-color="#E83752" stop-opacity="0"/>
</linearGradient>
<linearGradient id="paint40_linear_16_593" x1="578.052" y1="303.137" x2="578.052" y2="345.145" gradientUnits="userSpaceOnUse">
<stop stop-color="#FA5770"/>
<stop offset="1" stop-color="#E83752" stop-opacity="0"/>
</linearGradient>
<linearGradient id="paint41_linear_16_593" x1="578.053" y1="80.9375" x2="578.053" y2="127.367" gradientUnits="userSpaceOnUse">
<stop stop-color="#FA5770"/>
<stop offset="1" stop-color="#E83752" stop-opacity="0"/>
</linearGradient>
<linearGradient id="paint42_linear_16_593" x1="578.87" y1="13.5039" x2="578.87" y2="52.1953" gradientUnits="userSpaceOnUse">
<stop stop-color="#FA5770"/>
<stop offset="1" stop-color="#E83752" stop-opacity="0"/>
</linearGradient>
<linearGradient id="paint43_linear_16_593" x1="578.87" y1="371.676" x2="578.87" y2="417" gradientUnits="userSpaceOnUse">
<stop stop-color="#FA5770"/>
<stop offset="1" stop-color="#E83752" stop-opacity="0"/>
</linearGradient>
<linearGradient id="paint44_linear_16_593" x1="1125.85" y1="131" x2="1125.85" y2="165" gradientUnits="userSpaceOnUse">
<stop stop-color="#FA5770"/>
<stop offset="1" stop-color="#E83752" stop-opacity="0"/>
</linearGradient>
<linearGradient id="paint45_linear_16_593" x1="1125.85" y1="198" x2="1125.85" y2="237" gradientUnits="userSpaceOnUse">
<stop stop-color="#FA5770"/>
<stop offset="1" stop-color="#E83752" stop-opacity="0"/>
</linearGradient>
<linearGradient id="paint46_linear_16_593" x1="1126.67" y1="601" x2="1126.67" y2="636" gradientUnits="userSpaceOnUse">
<stop stop-color="#FA5770"/>
<stop offset="1" stop-color="#E83752" stop-opacity="0"/>
</linearGradient>
<linearGradient id="paint47_linear_16_593" x1="1126.67" y1="529" x2="1126.67" y2="569" gradientUnits="userSpaceOnUse">
<stop stop-color="#FA5770"/>
<stop offset="1" stop-color="#E83752" stop-opacity="0"/>
</linearGradient>
<linearGradient id="paint48_linear_16_593" x1="1125.85" y1="666" x2="1125.85" y2="704" gradientUnits="userSpaceOnUse">
<stop stop-color="#FA5770"/>
<stop offset="1" stop-color="#E83752" stop-opacity="0"/>
</linearGradient>
<linearGradient id="paint49_linear_16_593" x1="1125.85" y1="267" x2="1125.85" y2="302" gradientUnits="userSpaceOnUse">
<stop stop-color="#FA5770"/>
<stop offset="1" stop-color="#E83752" stop-opacity="0"/>
</linearGradient>
<linearGradient id="paint50_linear_16_593" x1="1126.67" y1="66" x2="1126.67" y2="104" gradientUnits="userSpaceOnUse">
<stop stop-color="#FA5770"/>
<stop offset="1" stop-color="#E83752" stop-opacity="0"/>
</linearGradient>
<linearGradient id="paint51_linear_16_593" x1="1125.85" y1="465" x2="1125.85" y2="507" gradientUnits="userSpaceOnUse">
<stop stop-color="#FA5770"/>
<stop offset="1" stop-color="#E83752" stop-opacity="0"/>
</linearGradient>
<linearGradient id="paint52_linear_16_593" x1="1125.85" y1="1" x2="1125.85" y2="39" gradientUnits="userSpaceOnUse">
<stop stop-color="#FA5770"/>
<stop offset="1" stop-color="#E83752" stop-opacity="0"/>
</linearGradient>
<linearGradient id="paint53_linear_16_593" x1="1126.67" y1="404" x2="1126.67" y2="439" gradientUnits="userSpaceOnUse">
<stop stop-color="#FA5770"/>
<stop offset="1" stop-color="#E83752" stop-opacity="0"/>
</linearGradient>
<linearGradient id="paint54_linear_16_593" x1="1126.67" y1="728" x2="1126.67" y2="769" gradientUnits="userSpaceOnUse">
<stop stop-color="#FA5770"/>
<stop offset="1" stop-color="#E83752" stop-opacity="0"/>
</linearGradient>
<linearGradient id="paint55_linear_16_593" x1="1156.1" y1="347" x2="1112.78" y2="374.279" gradientUnits="userSpaceOnUse">
<stop stop-color="#FA5770"/>
<stop offset="1" stop-color="#E83752"/>
</linearGradient>
<linearGradient id="paint56_linear_16_593" x1="1668.75" y1="347" x2="1668.75" y2="381" gradientUnits="userSpaceOnUse">
<stop stop-color="#FA5770"/>
<stop offset="1" stop-color="#E83752" stop-opacity="0"/>
</linearGradient>
<linearGradient id="paint57_linear_16_593" x1="1668.75" y1="414" x2="1668.75" y2="453" gradientUnits="userSpaceOnUse">
<stop stop-color="#FA5770"/>
<stop offset="1" stop-color="#E83752" stop-opacity="0"/>
</linearGradient>
<linearGradient id="paint58_linear_16_593" x1="1669.57" y1="817" x2="1669.57" y2="852" gradientUnits="userSpaceOnUse">
<stop stop-color="#FA5770"/>
<stop offset="1" stop-color="#E83752" stop-opacity="0"/>
</linearGradient>
<linearGradient id="paint59_linear_16_593" x1="1669.57" y1="745" x2="1669.57" y2="785" gradientUnits="userSpaceOnUse">
<stop stop-color="#FA5770"/>
<stop offset="1" stop-color="#E83752" stop-opacity="0"/>
</linearGradient>
<linearGradient id="paint60_linear_16_593" x1="1668.75" y1="882" x2="1668.75" y2="920" gradientUnits="userSpaceOnUse">
<stop stop-color="#FA5770"/>
<stop offset="1" stop-color="#E83752" stop-opacity="0"/>
</linearGradient>
<linearGradient id="paint61_linear_16_593" x1="1668.75" y1="483" x2="1668.75" y2="518" gradientUnits="userSpaceOnUse">
<stop stop-color="#FA5770"/>
<stop offset="1" stop-color="#E83752" stop-opacity="0"/>
</linearGradient>
<linearGradient id="paint62_linear_16_593" x1="1669.57" y1="282" x2="1669.57" y2="320" gradientUnits="userSpaceOnUse">
<stop stop-color="#FA5770"/>
<stop offset="1" stop-color="#E83752" stop-opacity="0"/>
</linearGradient>
<linearGradient id="paint63_linear_16_593" x1="1668.75" y1="681" x2="1668.75" y2="723" gradientUnits="userSpaceOnUse">
<stop stop-color="#FA5770"/>
<stop offset="1" stop-color="#E83752" stop-opacity="0"/>
</linearGradient>
<linearGradient id="paint64_linear_16_593" x1="1668.75" y1="217" x2="1668.75" y2="255" gradientUnits="userSpaceOnUse">
<stop stop-color="#FA5770"/>
<stop offset="1" stop-color="#E83752" stop-opacity="0"/>
</linearGradient>
<linearGradient id="paint65_linear_16_593" x1="1669.57" y1="620" x2="1669.57" y2="655" gradientUnits="userSpaceOnUse">
<stop stop-color="#FA5770"/>
<stop offset="1" stop-color="#E83752" stop-opacity="0"/>
</linearGradient>
<linearGradient id="paint66_linear_16_593" x1="1669.57" y1="944" x2="1669.57" y2="985" gradientUnits="userSpaceOnUse">
<stop stop-color="#FA5770"/>
<stop offset="1" stop-color="#E83752" stop-opacity="0"/>
</linearGradient>
<linearGradient id="paint67_linear_16_593" x1="1699" y1="563" x2="1655.67" y2="590.279" gradientUnits="userSpaceOnUse">
<stop stop-color="#FA5770"/>
<stop offset="1" stop-color="#E83752"/>
</linearGradient>
<linearGradient id="paint68_linear_16_593" x1="1156.92" y1="704" x2="1156.92" y2="738" gradientUnits="userSpaceOnUse">
<stop stop-color="#FA5770"/>
<stop offset="1" stop-color="#E83752" stop-opacity="0"/>
</linearGradient>
<linearGradient id="paint69_linear_16_593" x1="1156.92" y1="771" x2="1156.92" y2="810" gradientUnits="userSpaceOnUse">
<stop stop-color="#FA5770"/>
<stop offset="1" stop-color="#E83752" stop-opacity="0"/>
</linearGradient>
<linearGradient id="paint70_linear_16_593" x1="1156.92" y1="840" x2="1156.92" y2="875" gradientUnits="userSpaceOnUse">
<stop stop-color="#FA5770"/>
<stop offset="1" stop-color="#E83752" stop-opacity="0"/>
</linearGradient>
<linearGradient id="paint71_linear_16_593" x1="1157.74" y1="639" x2="1157.74" y2="677" gradientUnits="userSpaceOnUse">
<stop stop-color="#FA5770"/>
<stop offset="1" stop-color="#E83752" stop-opacity="0"/>
</linearGradient>
<linearGradient id="paint72_linear_16_593" x1="1156.92" y1="574" x2="1156.92" y2="612" gradientUnits="userSpaceOnUse">
<stop stop-color="#FA5770"/>
<stop offset="1" stop-color="#E83752" stop-opacity="0"/>
</linearGradient>
<linearGradient id="paint73_linear_16_593" x1="1157.74" y1="977" x2="1157.74" y2="1012" gradientUnits="userSpaceOnUse">
<stop stop-color="#FA5770"/>
<stop offset="1" stop-color="#E83752" stop-opacity="0"/>
</linearGradient>
<linearGradient id="paint74_linear_16_593" x1="1187.17" y1="920" x2="1143.85" y2="947.279" gradientUnits="userSpaceOnUse">
<stop stop-color="#FA5770"/>
<stop offset="1" stop-color="#E83752"/>
</linearGradient>
<linearGradient id="paint75_linear_16_593" x1="31.0693" y1="12" x2="31.0693" y2="47" gradientUnits="userSpaceOnUse">
<stop stop-color="#FA5770"/>
<stop offset="1" stop-color="#E83752" stop-opacity="0"/>
</linearGradient>
<linearGradient id="paint76_linear_16_593" x1="30.2517" y1="77" x2="30.2517" y2="115" gradientUnits="userSpaceOnUse">
<stop stop-color="#FA5770"/>
<stop offset="1" stop-color="#E83752" stop-opacity="0"/>
</linearGradient>
<linearGradient id="paint77_linear_16_593" x1="31.0692" y1="139" x2="31.0692" y2="180" gradientUnits="userSpaceOnUse">
<stop stop-color="#FA5770"/>
<stop offset="1" stop-color="#E83752" stop-opacity="0"/>
</linearGradient>
<linearGradient id="paint78_linear_16_593" x1="218.303" y1="1009" x2="218.303" y2="1043" gradientUnits="userSpaceOnUse">
<stop stop-color="#FA5770"/>
<stop offset="1" stop-color="#E83752" stop-opacity="0"/>
</linearGradient>
<linearGradient id="paint79_linear_16_593" x1="219.12" y1="944" x2="219.12" y2="982" gradientUnits="userSpaceOnUse">
<stop stop-color="#FA5770"/>
<stop offset="1" stop-color="#E83752" stop-opacity="0"/>
</linearGradient>
<linearGradient id="paint80_linear_16_593" x1="218.303" y1="879" x2="218.303" y2="917" gradientUnits="userSpaceOnUse">
<stop stop-color="#FA5770"/>
<stop offset="1" stop-color="#E83752" stop-opacity="0"/>
</linearGradient>
<linearGradient id="paint81_linear_16_593" x1="1327.8" y1="1023" x2="1327.8" y2="1061" gradientUnits="userSpaceOnUse">
<stop stop-color="#FA5770"/>
<stop offset="1" stop-color="#E83752" stop-opacity="0"/>
</linearGradient>
<linearGradient id="paint82_linear_16_593" x1="1326.99" y1="958" x2="1326.99" y2="996" gradientUnits="userSpaceOnUse">
<stop stop-color="#FA5770"/>
<stop offset="1" stop-color="#E83752" stop-opacity="0"/>
</linearGradient>
<linearGradient id="paint83_linear_16_593" x1="61.321" y1="605" x2="61.321" y2="639" gradientUnits="userSpaceOnUse">
<stop stop-color="#FA5770"/>
<stop offset="1" stop-color="#E83752" stop-opacity="0"/>
</linearGradient>
<linearGradient id="paint84_linear_16_593" x1="61.321" y1="672" x2="61.321" y2="711" gradientUnits="userSpaceOnUse">
<stop stop-color="#FA5770"/>
<stop offset="1" stop-color="#E83752" stop-opacity="0"/>
</linearGradient>
<linearGradient id="paint85_linear_16_593" x1="62.1386" y1="1003" x2="62.1386" y2="1043" gradientUnits="userSpaceOnUse">
<stop stop-color="#FA5770"/>
<stop offset="1" stop-color="#E83752" stop-opacity="0"/>
</linearGradient>
<linearGradient id="paint86_linear_16_593" x1="61.321" y1="741" x2="61.321" y2="776" gradientUnits="userSpaceOnUse">
<stop stop-color="#FA5770"/>
<stop offset="1" stop-color="#E83752" stop-opacity="0"/>
</linearGradient>
<linearGradient id="paint87_linear_16_593" x1="62.1387" y1="540" x2="62.1387" y2="578" gradientUnits="userSpaceOnUse">
<stop stop-color="#FA5770"/>
<stop offset="1" stop-color="#E83752" stop-opacity="0"/>
</linearGradient>
<linearGradient id="paint88_linear_16_593" x1="61.3211" y1="939" x2="61.3211" y2="981" gradientUnits="userSpaceOnUse">
<stop stop-color="#FA5770"/>
<stop offset="1" stop-color="#E83752" stop-opacity="0"/>
</linearGradient>
<linearGradient id="paint89_linear_16_593" x1="61.321" y1="475" x2="61.321" y2="513" gradientUnits="userSpaceOnUse">
<stop stop-color="#FA5770"/>
<stop offset="1" stop-color="#E83752" stop-opacity="0"/>
</linearGradient>
<linearGradient id="paint90_linear_16_593" x1="62.1386" y1="878" x2="62.1386" y2="913" gradientUnits="userSpaceOnUse">
<stop stop-color="#FA5770"/>
<stop offset="1" stop-color="#E83752" stop-opacity="0"/>
</linearGradient>
<linearGradient id="paint91_linear_16_593" x1="91.5727" y1="821" x2="48.244" y2="848.279" gradientUnits="userSpaceOnUse">
<stop stop-color="#FA5770"/>
<stop offset="1" stop-color="#E83752"/>
</linearGradient>
<linearGradient id="paint92_linear_16_593" x1="313.146" y1="176" x2="313.146" y2="210" gradientUnits="userSpaceOnUse">
<stop stop-color="#FA5770"/>
<stop offset="1" stop-color="#E83752" stop-opacity="0"/>
</linearGradient>
<linearGradient id="paint93_linear_16_593" x1="313.146" y1="243" x2="313.146" y2="282" gradientUnits="userSpaceOnUse">
<stop stop-color="#FA5770"/>
<stop offset="1" stop-color="#E83752" stop-opacity="0"/>
</linearGradient>
<linearGradient id="paint94_linear_16_593" x1="313.963" y1="646" x2="313.963" y2="681" gradientUnits="userSpaceOnUse">
<stop stop-color="#FA5770"/>
<stop offset="1" stop-color="#E83752" stop-opacity="0"/>
</linearGradient>
<linearGradient id="paint95_linear_16_593" x1="313.963" y1="574" x2="313.963" y2="614" gradientUnits="userSpaceOnUse">
<stop stop-color="#FA5770"/>
<stop offset="1" stop-color="#E83752" stop-opacity="0"/>
</linearGradient>
<linearGradient id="paint96_linear_16_593" x1="313.146" y1="711" x2="313.146" y2="749" gradientUnits="userSpaceOnUse">
<stop stop-color="#FA5770"/>
<stop offset="1" stop-color="#E83752" stop-opacity="0"/>
</linearGradient>
<linearGradient id="paint97_linear_16_593" x1="313.146" y1="312" x2="313.146" y2="347" gradientUnits="userSpaceOnUse">
<stop stop-color="#FA5770"/>
<stop offset="1" stop-color="#E83752" stop-opacity="0"/>
</linearGradient>
<linearGradient id="paint98_linear_16_593" x1="313.964" y1="111" x2="313.964" y2="149" gradientUnits="userSpaceOnUse">
<stop stop-color="#FA5770"/>
<stop offset="1" stop-color="#E83752" stop-opacity="0"/>
</linearGradient>
<linearGradient id="paint99_linear_16_593" x1="313.146" y1="510" x2="313.146" y2="552" gradientUnits="userSpaceOnUse">
<stop stop-color="#FA5770"/>
<stop offset="1" stop-color="#E83752" stop-opacity="0"/>
</linearGradient>
<linearGradient id="paint100_linear_16_593" x1="313.146" y1="46" x2="313.146" y2="84" gradientUnits="userSpaceOnUse">
<stop stop-color="#FA5770"/>
<stop offset="1" stop-color="#E83752" stop-opacity="0"/>
</linearGradient>
<linearGradient id="paint101_linear_16_593" x1="313.963" y1="449" x2="313.963" y2="484" gradientUnits="userSpaceOnUse">
<stop stop-color="#FA5770"/>
<stop offset="1" stop-color="#E83752" stop-opacity="0"/>
</linearGradient>
<linearGradient id="paint102_linear_16_593" x1="313.963" y1="773" x2="313.963" y2="814" gradientUnits="userSpaceOnUse">
<stop stop-color="#FA5770"/>
<stop offset="1" stop-color="#E83752" stop-opacity="0"/>
</linearGradient>
<linearGradient id="paint103_linear_16_593" x1="343.398" y1="392" x2="300.069" y2="419.279" gradientUnits="userSpaceOnUse">
<stop stop-color="#FA5770"/>
<stop offset="1" stop-color="#E83752"/>
</linearGradient>
</defs>
</svg>
