<svg width="260" height="260" viewBox="0 0 260 260" fill="none" xmlns="http://www.w3.org/2000/svg">
<path d="M130 232.143C186.413 232.143 232.143 186.413 232.143 130C232.143 73.5879 186.413 27.8569 130 27.8569C73.5881 27.8569 27.8572 73.5879 27.8572 130C27.8572 186.413 73.5881 232.143 130 232.143Z" stroke="#FA5770" stroke-width="7.85714" stroke-linecap="round" stroke-linejoin="round"/>
<path d="M78.1428 145.714C86 174 117.429 191.286 145.714 183.429C163 177.143 177.143 163 181.857 145.714" stroke="#FA5770" stroke-width="7.85714" stroke-linecap="round" stroke-linejoin="round"/>
<path d="M95.4286 105.643C93.2589 105.643 91.5 103.884 91.5 101.714C91.5 99.5445 93.2589 97.7856 95.4286 97.7856" stroke="#FA5770" stroke-width="7.85714" stroke-linecap="round" stroke-linejoin="round"/>
<path d="M95.4285 105.643C97.5981 105.643 99.357 103.884 99.357 101.714C99.357 99.5445 97.5981 97.7856 95.4285 97.7856" stroke="#FA5770" stroke-width="7.85714" stroke-linecap="round" stroke-linejoin="round"/>
<path d="M164.571 105.643C162.402 105.643 160.643 103.884 160.643 101.714C160.643 99.5445 162.402 97.7856 164.571 97.7856" stroke="#FA5770" stroke-width="7.85714" stroke-linecap="round" stroke-linejoin="round"/>
<path d="M164.571 105.643C166.741 105.643 168.5 103.884 168.5 101.714C168.5 99.5445 166.741 97.7856 164.571 97.7856" stroke="#FA5770" stroke-width="7.85714" stroke-linecap="round" stroke-linejoin="round"/>
<g filter="url(#filter0_f_80_408)">
<path d="M130 232.143C186.413 232.143 232.143 186.413 232.143 130C232.143 73.5879 186.413 27.8569 130 27.8569C73.5881 27.8569 27.8572 73.5879 27.8572 130C27.8572 186.413 73.5881 232.143 130 232.143Z" stroke="#FA5770" stroke-width="7.85714" stroke-linecap="round" stroke-linejoin="round"/>
<path d="M78.1428 145.714C86 174 117.429 191.286 145.714 183.429C163 177.143 177.143 163 181.857 145.714" stroke="#FA5770" stroke-width="7.85714" stroke-linecap="round" stroke-linejoin="round"/>
<path d="M95.4286 105.643C93.2589 105.643 91.5 103.884 91.5 101.714C91.5 99.5445 93.2589 97.7856 95.4286 97.7856" stroke="#FA5770" stroke-width="7.85714" stroke-linecap="round" stroke-linejoin="round"/>
<path d="M95.4285 105.643C97.5981 105.643 99.357 103.884 99.357 101.714C99.357 99.5445 97.5981 97.7856 95.4285 97.7856" stroke="#FA5770" stroke-width="7.85714" stroke-linecap="round" stroke-linejoin="round"/>
<path d="M164.571 105.643C162.402 105.643 160.643 103.884 160.643 101.714C160.643 99.5445 162.402 97.7856 164.571 97.7856" stroke="#FA5770" stroke-width="7.85714" stroke-linecap="round" stroke-linejoin="round"/>
<path d="M164.571 105.643C166.741 105.643 168.5 103.884 168.5 101.714C168.5 99.5445 166.741 97.7856 164.571 97.7856" stroke="#FA5770" stroke-width="7.85714" stroke-linecap="round" stroke-linejoin="round"/>
<path d="M130 232.143C186.413 232.143 232.143 186.413 232.143 130C232.143 73.5879 186.413 27.8569 130 27.8569C73.5881 27.8569 27.8572 73.5879 27.8572 130C27.8572 186.413 73.5881 232.143 130 232.143Z" stroke="#FA5770" stroke-width="7.85714" stroke-linecap="round" stroke-linejoin="round"/>
<path d="M78.1428 145.714C86 174 117.429 191.286 145.714 183.429C163 177.143 177.143 163 181.857 145.714" stroke="#FA5770" stroke-width="7.85714" stroke-linecap="round" stroke-linejoin="round"/>
<path d="M95.4286 105.643C93.2589 105.643 91.5 103.884 91.5 101.714C91.5 99.5445 93.2589 97.7856 95.4286 97.7856" stroke="#FA5770" stroke-width="7.85714" stroke-linecap="round" stroke-linejoin="round"/>
<path d="M95.4285 105.643C97.5981 105.643 99.357 103.884 99.357 101.714C99.357 99.5445 97.5981 97.7856 95.4285 97.7856" stroke="#FA5770" stroke-width="7.85714" stroke-linecap="round" stroke-linejoin="round"/>
<path d="M164.571 105.643C162.402 105.643 160.643 103.884 160.643 101.714C160.643 99.5445 162.402 97.7856 164.571 97.7856" stroke="#FA5770" stroke-width="7.85714" stroke-linecap="round" stroke-linejoin="round"/>
<path d="M164.571 105.643C166.741 105.643 168.5 103.884 168.5 101.714C168.5 99.5445 166.741 97.7856 164.571 97.7856" stroke="#FA5770" stroke-width="7.85714" stroke-linecap="round" stroke-linejoin="round"/>
</g>
<defs>
<filter id="filter0_f_80_408" x="0" y="0" width="260" height="260" filterUnits="userSpaceOnUse" color-interpolation-filters="sRGB">
<feFlood flood-opacity="0" result="BackgroundImageFix"/>
<feBlend mode="normal" in="SourceGraphic" in2="BackgroundImageFix" result="shape"/>
<feGaussianBlur stdDeviation="10" result="effect1_foregroundBlur_80_408"/>
</filter>
</defs>
</svg>
